PathFileType	4	(X/Y/Z)	/Users/itak/Documents/Research/Walk-IL/dataset/trc/00413_00012.trc
DataRate	CameraRate	NumFrames	NumMarkers	Units	OrigDataRate	OrigDataStartFrame	OrigNumFrames
100.000000	100.000000	4	53	mm	100.000000	0	576
Frame#	Time	RPSI			LPSI			L3			STRN			T10			C7			CLAV			RBAK			LBAK			LSHO			LUPA			LAEL			LAOL			LWTS			LWPS			LFRA			LIFD			LHPS			LHTS			RSHO			RUPA			RAEL			RAOL			RWTS			RWPS			RFRA			RIFD			RHTS			RHPS			RBHD			LFHD			RFHD			LBHD			LHIP			RHIP			RASI			LASI			LKNE			LTHI			LANK			LTIP			LTOE			LMT1			LMT5			LHEE			RKNE			RTHI			RANK			RTIP			RTOE			RMT1			RMT5			RHEE			
		X1	Y1	Z1	X2	Y2	Z2	X3	Y3	Z3	X4	Y4	Z4	X5	Y5	Z5	X6	Y6	Z6	X7	Y7	Z7	X8	Y8	Z8	X9	Y9	Z9	X10	Y10	Z10	X11	Y11	Z11	X12	Y12	Z12	X13	Y13	Z13	X14	Y14	Z14	X15	Y15	Z15	X16	Y16	Z16	X17	Y17	Z17	X18	Y18	Z18	X19	Y19	Z19	X20	Y20	Z20	X21	Y21	Z21	X22	Y22	Z22	X23	Y23	Z23	X24	Y24	Z24	X25	Y25	Z25	X26	Y26	Z26	X27	Y27	Z27	X28	Y28	Z28	X29	Y29	Z29	X30	Y30	Z30	X31	Y31	Z31	X32	Y32	Z32	X33	Y33	Z33	X34	Y34	Z34	X35	Y35	Z35	X36	Y36	Z36	X37	Y37	Z37	X38	Y38	Z38	X39	Y39	Z39	X40	Y40	Z40	X41	Y41	Z41	X42	Y42	Z42	X43	Y43	Z43	X44	Y44	Z44	X45	Y45	Z45	X46	Y46	Z46	X47	Y47	Z47	X48	Y48	Z48	X49	Y49	Z49	X50	Y50	Z50	X51	Y51	Z51	X52	Y52	Z52	X53	Y53	Z53	

1	0	-860.2640380859375	992.7015991210938	598.96337890625	-860.0929565429688	985.1180419921875	468.2450866699219	-858.3880615234375	1059.654174804688	533.9500732421875	-618.8281860351562	1215.786010742188	551.7677612304688	-860.1373291015625	1159.431884765625	527.5513916015625	-831.3049926757812	1410.29443359375	517.942138671875	-673.0429077148438	1335.13623046875	544.709716796875	-876.7025756835938	1263.632080078125	583.2000732421875	-827.167236328125	1371.050048828125	412.0035400390625	-733.251220703125	1389.132690429688	375.3254089355469	-734.596435546875	1271.550048828125	302.5118103027344	-694.1085815429688	1074.232177734375	293.0563049316406	-767.683349609375	1052.932373046875	330.8132019042969	-616.2774658203125	866.1748657226562	381.0918579101562	-633.0321044921875	849.1968994140625	302.4610900878906	-668.37060546875	970.8007202148438	295.3389282226562	-609.2312622070312	686.82568359375	386.6382141113281	-619.3801879882812	764.3629760742188	320.3219909667969	-587.12890625	771.107666015625	375.3861083984375	-788.3077392578125	1391.2890625	684.280517578125	-803.1102294921875	1325.827392578125	743.45751953125	-779.4414672851562	1062.57861328125	783.0369873046875	-803.4473266601562	1054.377807617188	692.9411010742188	-648.1292114257812	851.0596923828125	739.6109008789062	-680.2860107421875	838.69873046875	803.4535522460938	-748.407470703125	998.2667846679688	796.2318115234375	-646.547119140625	678.5750122070312	736.517822265625	-623.3449096679688	749.0148315429688	751.982177734375	-673.6868896484375	749.1819458007812	801.1151733398438	-818.9053344726562	1600.744384765625	598.029296875	-648.9009399414062	1610.350830078125	492.3613891601562	-686.4998168945312	1617.894897460938	610.0046997070312	-788.4652709960938	1587.302612304688	439.4923706054688	-770.4345092773438	970.27783203125	355.8375244140625	-782.5376586914062	967.8990478515625	717.8573608398438	-647.3740844726562	972.5128173828125	665.2279663085938	-656.3479614257812	966.9196166992188	402.0981140136719	-735.4605712890625	475.0077209472656	380.2801513671875	-738.7669677734375	617.9613647460938	368.3676147460938	-825.7224731445312	39.18916702270508	422.2596130371094	-784.183837890625	244.4353332519531	389.2061462402344	-617.0238647460938	42.99944305419922	501.5052185058594	-697.6973876953125	45.04868698120117	525.2303466796875	-697.87451171875	40.75489807128906	419.3067932128906	-867.2935180664062	36.78639602661133	476.8858642578125	-752.7526245117188	474.9470825195312	692.6444702148438	-705.6007690429688	738.2693481445312	715.2117919921875	-815.2208862304688	56.98982620239258	658.2589111328125	-748.2307739257812	348.5675354003906	677.7947387695312	-630.5413208007812	41.32552719116211	615.4845581054688	-702.14306640625	44.2454719543457	576.0272827148438	-734.24169921875	45.34502029418945	672.2769165039062	-883.5413818359375	45.03593444824219	599.586669921875	
2	0.01	-860.2703247070312	992.700927734375	598.9619750976562	-860.0972290039062	985.1160278320312	468.2378234863281	-858.397705078125	1059.649047851562	533.9415283203125	-618.8698120117188	1215.78759765625	551.7611694335938	-860.1411743164062	1159.424072265625	527.5371704101562	-831.3128662109375	1410.28466796875	517.9547729492188	-673.0699462890625	1335.138549804688	544.7103271484375	-876.7255859375	1263.625732421875	583.2001953125	-827.203125	1371.053100585938	412.0169067382812	-733.30322265625	1389.140014648438	375.3289794921875	-734.637451171875	1271.557739257812	302.5179443359375	-694.1514892578125	1074.240844726562	293.0508728027344	-767.547119140625	1052.736694335938	330.7996520996094	-616.3102416992188	866.1868286132812	381.0881652832031	-633.0733642578125	849.2078857421875	302.4469299316406	-668.4275512695312	970.8058471679688	295.3308410644531	-609.24169921875	686.8397827148438	386.6365051269531	-619.398681640625	764.3734130859375	320.3208618164062	-587.1807250976562	771.1268920898438	375.37109375	-788.3320922851562	1391.281494140625	684.2883911132812	-803.1328735351562	1325.814575195312	743.4680786132812	-779.4434814453125	1062.573608398438	783.0346069335938	-803.4531860351562	1054.379272460938	692.936279296875	-648.1021728515625	851.0744018554688	739.6324462890625	-680.2714233398438	838.7019653320312	803.460205078125	-748.406982421875	998.2639770507812	796.2333984375	-646.5084228515625	678.5984497070312	736.5228271484375	-623.5116577148438	748.759765625	752.1751098632812	-673.6798095703125	749.171875	801.1249389648438	-818.896240234375	1600.752075195312	598.036865234375	-648.8909301757812	1610.318481445312	492.3709716796875	-686.4956665039062	1617.887329101562	610.010986328125	-788.4782104492188	1587.308715820312	439.4977722167969	-770.3245849609375	970.2666625976562	355.9027404785156	-782.5482177734375	967.9043579101562	717.84619140625	-647.3953857421875	972.5173950195312	665.2230834960938	-656.3648681640625	966.921142578125	402.0876770019531	-735.4564819335938	475.0077819824219	380.2780151367188	-738.7640991210938	617.9598999023438	368.3612976074219	-825.7203979492188	39.1922492980957	422.2603454589844	-784.1760864257812	244.4322509765625	389.2023620605469	-617.0230102539062	42.99853515625	501.5054016113281	-697.7258911132812	45.04402542114258	525.233154296875	-697.8763427734375	40.7544059753418	419.3037414550781	-867.2858276367188	36.78213882446289	476.8907165527344	-752.8201904296875	474.9522094726562	692.6554565429688	-705.6298828125	738.2770385742188	715.227783203125	-815.2283325195312	56.98520660400391	658.25537109375	-748.236083984375	348.5745544433594	677.797607421875	-630.5419311523438	41.32624053955078	615.484375	-702.13818359375	44.2465705871582	576.0297241210938	-734.2591552734375	45.33468627929688	672.2713623046875	-883.5425415039062	45.03508377075195	599.5863647460938	
3	0.02	-860.2792358398438	992.699951171875	598.9605102539062	-860.1034545898438	985.1121826171875	468.2286071777344	-858.4109497070312	1059.642700195312	533.9296875	-618.9261474609375	1215.790283203125	551.7531127929688	-860.1480712890625	1159.414916992188	527.5193481445312	-831.326416015625	1410.272583007812	517.9688110351562	-673.109130859375	1335.141479492188	544.7110595703125	-876.7559814453125	1263.617797851562	583.2003784179688	-827.249755859375	1371.057495117188	412.0340881347656	-733.3729858398438	1389.149536132812	375.3336791992188	-734.6915893554688	1271.568359375	302.5250854492188	-694.2083740234375	1074.252685546875	293.04345703125	-767.3935546875	1052.511474609375	330.7855529785156	-616.3515625	866.20458984375	381.0832824707031	-633.1267700195312	849.2235107421875	302.4283142089844	-668.4996337890625	970.8131103515625	295.3207092285156	-609.2545776367188	686.8599243164062	386.6343078613281	-619.4224243164062	764.3873901367188	320.3198547363281	-587.2596435546875	771.1519775390625	375.3497619628906	-788.3638916015625	1391.271484375	684.2985229492188	-803.1633911132812	1325.796875	743.4806518554688	-779.4471435546875	1062.566162109375	783.0307006835938	-803.462158203125	1054.381225585938	692.9291381835938	-648.0679931640625	851.0927734375	739.6588745117188	-680.2532348632812	838.7061157226562	803.4675903320312	-748.4050903320312	998.2592163085938	796.2340698242188	-646.4625854492188	678.6253051757812	736.5280151367188	-623.7322998046875	748.419189453125	752.4331665039062	-673.665771484375	749.1593017578125	801.1358642578125	-818.88330078125	1600.76123046875	598.0465698242188	-648.8792114257812	1610.276000976562	492.3847351074219	-686.4910888671875	1617.87646484375	610.020263671875	-788.4956665039062	1587.31689453125	439.5050048828125	-770.186279296875	970.251953125	355.9853210449219	-782.5625610351562	967.9107055664062	717.8316650390625	-647.4215698242188	972.5238647460938	665.2164306640625	-656.3876342773438	966.923583984375	402.0748291015625	-735.4503173828125	475.0079040527344	380.2754516601562	-738.7607421875	617.958251953125	368.3528747558594	-825.7179565429688	39.19583129882812	422.2610473632812	-784.1666870117188	244.4283752441406	389.1978759765625	-617.0220947265625	42.99744415283203	501.505615234375	-697.7567749023438	45.03892135620117	525.2360229492188	-697.8785400390625	40.75387191772461	419.3000793457031	-867.27587890625	36.77661895751953	476.8970031738281	-752.898681640625	474.9580688476562	692.6676025390625	-705.6675415039062	738.2869873046875	715.2451171875	-815.2359008789062	56.98036956787109	658.2516479492188	-748.2425537109375	348.5832214355469	677.8007202148438	-630.542724609375	41.32676696777344	615.484130859375	-702.1326904296875	44.24786376953125	576.0323486328125	-734.281005859375	45.32252883911133	672.2645263671875	-883.5435180664062	45.03517532348633	599.5863037109375	
4	0.03	-860.2908935546875	992.6985473632812	598.959228515625	-860.1116943359375	985.1058959960938	468.2178344726562	-858.427734375	1059.635498046875	533.91455078125	-618.9965209960938	1215.794067382812	551.7442626953125	-860.1589965820312	1159.405517578125	527.4988403320312	-831.3467407226562	1410.2587890625	517.9828491210938	-673.1614379882812	1335.14501953125	544.7119750976562	-876.7929077148438	1263.608276367188	583.20068359375	-827.3057861328125	1371.063232421875	412.0543518066406	-733.4595336914062	1389.161010742188	375.3393859863281	-734.757568359375	1271.58203125	302.5326538085938	-694.2779541015625	1074.267333984375	293.0341491699219	-767.2393188476562	1052.277587890625	330.7728881835938	-616.3991088867188	866.2288208007812	381.0773010253906	-633.1904296875	849.244140625	302.4056701660156	-668.58349609375	970.8226928710938	295.3089904785156	-609.26904296875	686.8862915039062	386.6315307617188	-619.450439453125	764.4046630859375	320.319091796875	-587.3690185546875	771.1820068359375	375.3218688964844	-788.40234375	1391.259033203125	684.3104248046875	-803.2015991210938	1325.774291992188	743.4942626953125	-779.4530639648438	1062.556030273438	783.0250854492188	-803.4746704101562	1054.383544921875	692.9194946289062	-648.0282592773438	851.11376953125	739.6883544921875	-680.232177734375	838.7109375	803.4749145507812	-748.401123046875	998.2521362304688	796.2332153320312	-646.4135131835938	678.6527709960938	736.532470703125	-623.9977416992188	748.0040893554688	752.747802734375	-673.6421508789062	749.1448974609375	801.146484375	-818.8663330078125	1600.770751953125	598.0582275390625	-648.866943359375	1610.224487304688	492.4029235839844	-686.4866943359375	1617.862182617188	610.0328369140625	-788.517578125	1587.327026367188	439.5138854980469	-770.02978515625	970.234130859375	356.0796203613281	-782.5804443359375	967.9178466796875	717.8143920898438	-647.450927734375	972.5321655273438	665.2080688476562	-656.416015625	966.9270629882812	402.060302734375	-735.44189453125	475.0080871582031	380.272705078125	-738.757080078125	617.9566040039062	368.342529296875	-825.7153930664062	39.19959259033203	422.2616577148438	-784.1563720703125	244.4239654541016	389.1930541992188	-617.021240234375	42.99626159667969	501.5058288574219	-697.786376953125	45.03395843505859	525.2384643554688	-697.8809814453125	40.75336456298828	419.2960510253906	-867.26416015625	36.77013397216797	476.9043579101562	-752.98095703125	474.9640502929688	692.6793212890625	-705.7122192382812	738.298583984375	715.26123046875	-815.2421264648438	56.97611618041992	658.2483520507812	-748.249755859375	348.5927734375	677.8037719726562	-630.543701171875	41.32688903808594	615.4840087890625	-702.127197265625	44.24923706054688	576.0349731445312	-734.305908203125	45.30967712402344	672.2568969726562	-883.5440673828125	45.03667068481445	599.586669921875	
